<svg width="220" height="220" viewBox="0 0 220 220" fill="none" xmlns="http://www.w3.org/2000/svg">
  <defs>
    <linearGradient id="goldFill" x1="30" y1="20" x2="190" y2="200" gradientUnits="userSpaceOnUse">
      <stop stop-color="#FFF4BF"/>
      <stop offset="0.35" stop-color="#F6D56F"/>
      <stop offset="0.7" stop-color="#D8A73F"/>
      <stop offset="1" stop-color="#B67C1E"/>
    </linearGradient>
    <linearGradient id="goldStroke" x1="30" y1="20" x2="190" y2="200" gradientUnits="userSpaceOnUse">
      <stop stop-color="#FFEAA0"/>
      <stop offset="1" stop-color="#A96F13"/>
    </linearGradient>
  </defs>

  <rect width="220" height="220" rx="28" fill="#0E0F14"/>
  <path d="M110 18L185 50V110C185 154 155 189 110 202C65 189 35 154 35 110V50L110 18Z" fill="#14161F" stroke="url(#goldStroke)" stroke-width="7"/>
  <path d="M110 35L170 61V109C170 146 145 176 110 188C75 176 50 146 50 109V61L110 35Z" fill="#0D1017" stroke="url(#goldStroke)" stroke-width="4"/>

  <path d="M80 82L98 70H122L140 82L133 108L118 123H102L87 108L80 82Z" fill="url(#goldFill)"/>
  <path d="M95 127L110 118L125 127L120 146H100L95 127Z" fill="url(#goldFill)"/>
  <path d="M92 82L103 90L97 104L84 108L92 82Z" fill="#1A1B22"/>
  <path d="M128 82L136 108L123 104L117 90L128 82Z" fill="#1A1B22"/>
  <path d="M103 101H117L110 110L103 101Z" fill="#1A1B22"/>
  <circle cx="98" cy="93" r="3" fill="#1A1B22"/>
  <circle cx="122" cy="93" r="3" fill="#1A1B22"/>

  <path d="M110 52L124 57L126 65H94L96 57L110 52Z" fill="url(#goldFill)" stroke="#A36D19" stroke-width="2"/>
  <path d="M90 60H130" stroke="#A36D19" stroke-width="2" stroke-linecap="round"/>

  <path d="M28 150C44 127 58 121 70 120" stroke="url(#goldStroke)" stroke-width="5" stroke-linecap="round"/>
  <path d="M192 150C176 127 162 121 150 120" stroke="url(#goldStroke)" stroke-width="5" stroke-linecap="round"/>
  <circle cx="110" cy="168" r="5" fill="url(#goldFill)"/>
</svg>
